<svg xmlns="http://www.w3.org/2000/svg">
	<symbol id="manage-ip">
		<path fill-rule="evenodd" clip-rule="evenodd" d="M5.47742 2.27078C5.69152 2.09617 5.96568 2 6.2494 2H8.82353C9.47328 2 10 2.49403 10 3.10345V8.34483C10 9.25895 9.20991 10 8.23529 10H1.76471C0.790086 10 0 9.25895 0 8.34483V5.86207C0 5.25265 0.526724 4.75862 1.17647 4.75862H2.42707L5.47742 2.27078ZM8.82353 3.10345L6.2494 3.10345L3.19905 5.59129C2.98495 5.7659 2.71079 5.86207 2.42707 5.86207H1.17647V8.34483C1.17647 8.64954 1.43983 8.89655 1.76471 8.89655H8.23529C8.56017 8.89655 8.82353 8.64954 8.82353 8.34483V3.10345Z"/>
		<path fill-rule="evenodd" clip-rule="evenodd" d="M5.47742 14.2708C5.69152 14.0962 5.96568 14 6.2494 14H8.82353C9.47328 14 10 14.494 10 15.1034V20.3448C10 21.259 9.20991 22 8.23529 22H1.76471C0.790086 22 0 21.259 0 20.3448V17.8621C0 17.2527 0.526724 16.7586 1.17647 16.7586H2.42707L5.47742 14.2708ZM8.82353 15.1034L6.2494 15.1034L3.19905 17.5913C2.98495 17.7659 2.71079 17.8621 2.42707 17.8621H1.17647V20.3448C1.17647 20.6495 1.43983 20.8966 1.76471 20.8966H8.23529C8.56017 20.8966 8.82353 20.6495 8.82353 20.3448V15.1034Z"/>
		<path fill-rule="evenodd" clip-rule="evenodd" d="M5.47742 26.2708C5.69152 26.0962 5.96568 26 6.2494 26H8.82353C9.47328 26 10 26.494 10 27.1034V32.3448C10 33.259 9.20991 34 8.23529 34H1.76471C0.790086 34 0 33.259 0 32.3448V29.8621C0 29.2527 0.526724 28.7586 1.17647 28.7586H2.42707L5.47742 26.2708ZM8.82353 27.1034L6.2494 27.1034L3.19905 29.5913C2.98495 29.7659 2.71079 29.8621 2.42707 29.8621H1.17647V32.3448C1.17647 32.6495 1.43983 32.8966 1.76471 32.8966H8.23529C8.56017 32.8966 8.82353 32.6495 8.82353 32.3448V27.1034Z"/>
		<path fill-rule="evenodd" clip-rule="evenodd" d="M1 1.05263C1 0.471279 1.55103 0 2.23077 0H7.76923C8.44897 0 9 0.471279 9 1.05263V2.36842H7.76923V1.05263H2.23077V5H1V1.05263Z"/>
		<path fill-rule="evenodd" clip-rule="evenodd" d="M1 13.0526C1 12.4713 1.55103 12 2.23077 12H7.76923C8.44897 12 9 12.4713 9 13.0526V14.3684H7.76923V13.0526H2.23077V17H1V13.0526Z"/>
		<path fill-rule="evenodd" clip-rule="evenodd" d="M1 25.0526C1 24.4713 1.55103 24 2.23077 24H7.76923C8.44897 24 9 24.4713 9 25.0526V26.3684H7.76923V25.0526H2.23077V29H1V25.0526Z"/>
		<path fill-rule="evenodd" clip-rule="evenodd" d="M13.8571 29.8636L13.8571 7.13636L11 7.13636L11 6L13.8571 6C14.4883 6 15 6.50877 15 7.13636L15 29.8636C15 30.4912 14.4883 31 13.8571 31L11.1681 31L11.1681 29.8636L13.8571 29.8636Z"/>
		<path fill-rule="evenodd" clip-rule="evenodd" d="M16 18L11 18L11 17L16 17L16 18Z"/>
		<path fill-rule="evenodd" clip-rule="evenodd" d="M24.069 10.1034C24.069 9.49403 24.563 9 25.1724 9H26.8276C27.437 9 27.931 9.49403 27.931 10.1034V11.5367C28.1248 11.6052 28.3139 11.6837 28.4976 11.7716L29.5112 10.758C29.9421 10.327 30.6408 10.327 31.0717 10.758L32.2421 11.9283C32.673 12.3593 32.673 13.0579 32.2421 13.4888L31.2285 14.5025C31.3163 14.6861 31.3948 14.8752 31.4633 15.069H32.8966C33.506 15.069 34 15.563 34 16.1724V17.8276C34 18.437 33.506 18.931 32.8966 18.931H31.4634C31.3949 19.1248 31.3163 19.3139 31.2285 19.4975L32.2421 20.5111C32.673 20.9421 32.673 21.6407 32.2421 22.0716L31.0717 23.242C30.6408 23.673 29.9421 23.673 29.5112 23.242L28.4976 22.2284C28.3139 22.3163 28.1249 22.3948 27.931 22.4633V23.8966C27.931 24.506 27.437 25 26.8276 25H25.1724C24.563 25 24.069 24.506 24.069 23.8966V22.4633C23.8752 22.3948 23.6862 22.3163 23.5025 22.2284L22.4889 23.242C22.0579 23.673 21.3593 23.673 20.9284 23.242L19.758 22.0717C19.3271 21.6407 19.3271 20.9421 19.758 20.5112L20.7716 19.4975C20.6837 19.3139 20.6052 19.1248 20.5367 18.931H19.1034C18.494 18.931 18 18.437 18 17.8276V16.1724C18 15.563 18.494 15.069 19.1034 15.069H20.5367C20.6052 14.8752 20.6837 14.6861 20.7716 14.5025L19.758 13.4888C19.3271 13.0579 19.3271 12.3592 19.758 11.9283L20.9284 10.7579C21.3593 10.327 22.0579 10.327 22.4889 10.7579L23.5025 11.7716C23.6862 11.6837 23.8752 11.6052 24.069 11.5367V10.1034ZM26.8276 10.1034L25.1724 10.1034V12.3637L24.7655 12.4744C24.3795 12.5794 24.0131 12.7326 23.6733 12.9272L23.3073 13.1368L21.7086 11.5382L20.5382 12.7086L22.1369 14.3072L21.9273 14.6733C21.7326 15.0131 21.5795 15.3795 21.4744 15.7655L21.3637 16.1724H19.1034V17.8276H21.3637L21.4744 18.2345C21.5794 18.6205 21.7326 18.9869 21.9273 19.3267L22.1369 19.6928L20.5382 21.2914L21.7086 22.4618L23.3072 20.8632L23.6733 21.0728C24.0131 21.2674 24.3795 21.4206 24.7655 21.5256L25.1724 21.6363V23.8966H26.8276V21.6363L27.2345 21.5256C27.6206 21.4206 27.9869 21.2674 28.3268 21.0728L28.6928 20.8632L30.2914 22.4618L31.4618 21.2914L29.8632 19.6928L30.0728 19.3267C30.2674 18.9869 30.4206 18.6205 30.5257 18.2345L30.6364 17.8276H32.8966V16.1724H30.6364L30.5257 15.7655C30.4206 15.3795 30.2674 15.0131 30.0728 14.6733L29.8632 14.3072L31.4618 12.7086L30.2914 11.5382L28.6928 13.1368L28.3268 12.9272C27.9869 12.7326 27.6206 12.5794 27.2345 12.4744L26.8276 12.3637V10.1034Z"/>
		<path fill-rule="evenodd" clip-rule="evenodd" d="M26 14.9231C24.8529 14.9231 23.9231 15.8529 23.9231 17C23.9231 18.1471 24.8529 19.0769 26 19.0769C27.1471 19.0769 28.0769 18.1471 28.0769 17C28.0769 15.8529 27.1471 14.9231 26 14.9231ZM23 17C23 15.3431 24.3431 14 26 14C27.6569 14 29 15.3431 29 17C29 18.6569 27.6569 20 26 20C24.3431 20 23 18.6569 23 17Z"/>
	</symbol>
	<symbol id="manage-user">
		<path fill-rule="evenodd" clip-rule="evenodd" d="M11.8148 1.5C11.8148 0.671574 12.4864 0 13.3148 0H16.6852C17.5136 0 18.1852 0.671573 18.1852 1.5V3.42745C19.1549 3.69376 20.0754 4.07862 20.9301 4.56537L22.2937 3.20178C22.8795 2.61599 23.8292 2.61599 24.415 3.20178L26.7982 5.58499C27.384 6.17078 27.384 7.12053 26.7982 7.70631L25.4346 9.06991C25.9214 9.92463 26.3062 10.8451 26.5726 11.8148H28.5C29.3284 11.8148 30 12.4864 30 13.3148V16.6852C30 17.5136 29.3284 18.1852 28.5 18.1852H26.5726C26.3063 19.1548 25.9214 20.0753 25.4347 20.93L26.7983 22.2936C27.384 22.8794 27.384 23.8292 26.7983 24.415L24.415 26.7982C23.8293 27.384 22.8795 27.384 22.2937 26.7982L20.9302 25.4346C20.0754 25.9214 19.1549 26.3062 18.1852 26.5726V28.5C18.1852 29.3284 17.5136 30 16.6852 30H13.3148C12.4864 30 11.8148 29.3284 11.8148 28.5V26.5726C10.8452 26.3063 9.92464 25.9214 9.06991 25.4346L7.70635 26.7982C7.12056 27.384 6.17082 27.384 5.58503 26.7982L3.20182 24.415C2.61603 23.8292 2.61603 22.8794 3.20182 22.2937L4.56537 20.9301C4.07861 20.0754 3.69375 19.1549 3.42744 18.1852H1.5C0.671573 18.1852 0 17.5136 0 16.6852V13.3148C0 12.4864 0.671574 11.8148 1.5 11.8148H3.42744C3.69376 10.8451 4.07863 9.92459 4.5654 9.06984L3.20184 7.70629C2.61605 7.1205 2.61605 6.17075 3.20184 5.58496L5.58505 3.20175C6.17084 2.61597 7.12059 2.61597 7.70637 3.20175L9.06995 4.56533C9.92467 4.07859 10.8452 3.69374 11.8148 3.42743V1.5ZM13.3148 1C13.0387 1 12.8148 1.22386 12.8148 1.5V4.20967L12.4312 4.30145C11.2927 4.57377 10.2228 5.0232 9.25227 5.61919L8.91606 5.82566L6.99926 3.90886C6.804 3.7136 6.48742 3.7136 6.29216 3.90886L3.90895 6.29207C3.71368 6.48733 3.71368 6.80392 3.90895 6.99918L5.82572 8.91596L5.61926 9.25217C5.02324 10.2227 4.57379 11.2926 4.30146 12.4311L4.20968 12.8148H1.5C1.22386 12.8148 1 13.0387 1 13.3148V16.6852C1 16.9613 1.22386 17.1852 1.5 17.1852H4.20968L4.30146 17.5689C4.57379 18.7074 5.02323 19.7772 5.61923 20.7478L5.82569 21.084L3.90892 23.0008C3.71366 23.196 3.71366 23.5126 3.90892 23.7079L6.29214 26.0911C6.4874 26.2864 6.80398 26.2864 6.99924 26.0911L8.91602 24.1743L9.25223 24.3808C10.2228 24.9768 11.2926 25.4262 12.4312 25.6986L12.8148 25.7903V28.5C12.8148 28.7761 13.0387 29 13.3148 29H16.6852C16.9614 29 17.1852 28.7761 17.1852 28.5V25.7903L17.5689 25.6985C18.7074 25.4262 19.7773 24.9768 20.7478 24.3807L21.084 24.1743L23.0008 26.0911C23.1961 26.2863 23.5127 26.2863 23.7079 26.0911L26.0911 23.7078C26.2864 23.5126 26.2864 23.196 26.0911 23.0007L24.1743 21.0839L24.3808 20.7477C24.9768 19.7772 25.4262 18.7074 25.6985 17.5689L25.7903 17.1852H28.5C28.7761 17.1852 29 16.9613 29 16.6852V13.3148C29 13.0387 28.7761 12.8148 28.5 12.8148H25.7903L25.6985 12.4311C25.4262 11.2926 24.9768 10.2228 24.3808 9.25223L24.1743 8.91602L26.0911 6.99921C26.2864 6.80394 26.2864 6.48736 26.0911 6.2921L23.7079 3.90889C23.5127 3.71362 23.1961 3.71362 23.0008 3.90889L21.084 5.82569L20.7478 5.61923C19.7772 5.02323 18.7074 4.57379 17.5689 4.30147L17.1852 4.20969V1.5C17.1852 1.22386 16.9614 1 16.6852 1H13.3148Z"/>
		<path fill-rule="evenodd" clip-rule="evenodd" d="M15 7C10.5817 7 7 10.5817 7 15C7 19.4183 10.5817 23 15 23C19.4183 23 23 19.4183 23 15C23 10.5817 19.4183 7 15 7ZM6 15C6 10.0294 10.0294 6 15 6C19.9706 6 24 10.0294 24 15C24 19.9706 19.9706 24 15 24C10.0294 24 6 19.9706 6 15Z"/>
		<path fill-rule="evenodd" clip-rule="evenodd" d="M11.5244 10.3554C11.8364 10.0454 12.3401 10.0454 12.6521 10.3554L15.9706 13.6524L17.3479 12.284C17.6599 11.974 18.1636 11.974 18.4756 12.284L20.6382 14.4325C20.9531 14.7453 20.9531 15.2547 20.6382 15.5676L16.5344 19.6447C16.2224 19.9546 15.7187 19.9546 15.4067 19.6447L9.3618 13.639C9.04692 13.3262 9.04692 12.8168 9.3618 12.5039L11.5244 10.3554ZM12.0882 11.2049L10.2094 13.0715L15.9706 18.7952L19.7906 15L17.9118 13.1334L16.5344 14.5018C16.2224 14.8118 15.7187 14.8118 15.4067 14.5018L12.0882 11.2049Z"/>
	</symbol>	
	<symbol id="arround">
		<path d="M12.6822 6.01449C13.1059 6.46105 13.1059 7.18507 12.6822 7.63162C12.2584 8.07818 11.5714 8.07818 11.1476 7.63162L5.76196 1.95629C5.33819 1.50973 5.3382 0.785718 5.76196 0.33916C6.18572 -0.107398 6.87278 -0.107398 7.29654 0.33916L12.6822 6.01449Z"/>
		<path d="M1.85974 7.66376C1.4343 8.11208 0.74452 8.11208 0.31908 7.66376C-0.106359 7.21543 -0.106359 6.48855 0.319081 6.04023L5.73191 0.336243C6.15735 -0.112082 6.84713 -0.112082 7.27257 0.336243C7.69801 0.784567 7.69801 1.51145 7.27256 1.95977L1.85974 7.66376Z"/>
	</symbol>
	<symbol id="filters">
		<path d="M3.64645 18.3536C3.84171 18.5488 4.15829 18.5488 4.35355 18.3536L7.53553 15.1716C7.7308 14.9763 7.7308 14.6597 7.53553 14.4645C7.34027 14.2692 7.02369 14.2692 6.82843 14.4645L4 17.2929L1.17157 14.4645C0.976311 14.2692 0.659729 14.2692 0.464466 14.4645C0.269204 14.6597 0.269204 14.9763 0.464466 15.1716L3.64645 18.3536ZM3.5 2L3.5 18L4.5 18L4.5 2L3.5 2Z"/>
		<path d="M12.3536 0.646446C12.1583 0.451185 11.8417 0.451185 11.6464 0.646446L8.46447 3.82843C8.2692 4.02369 8.2692 4.34027 8.46447 4.53553C8.65973 4.7308 8.97631 4.7308 9.17157 4.53553L12 1.70711L14.8284 4.53553C15.0237 4.7308 15.3403 4.7308 15.5355 4.53553C15.7308 4.34027 15.7308 4.02369 15.5355 3.82843L12.3536 0.646446ZM12.5 17L12.5 1L11.5 1L11.5 17L12.5 17Z"/>>
	</symbol>		
	<symbol id="sort_a-z">
		<path d="M6.03271 6.53906H3.44922L2.99805 8H0.983887L3.85205 0.179688H5.62451L8.51416 8H6.48926L6.03271 6.53906ZM3.90039 5.0835H5.58154L4.73828 2.37109L3.90039 5.0835Z" fill="#FFCE6D"/>
		<path d="M4.9585 18V15.2554H3.87354L2.55225 18H0.505859L2.11182 14.6162C1.41357 14.1615 1.06445 13.4937 1.06445 12.6128C1.06445 11.8394 1.31868 11.2414 1.82715 10.8188C2.33561 10.3927 3.06787 10.1797 4.02393 10.1797H6.84912V18H4.9585ZM2.94434 12.7793C2.94434 13.1768 3.0249 13.465 3.18604 13.644C3.34717 13.8231 3.61751 13.9126 3.99707 13.9126H4.9585V11.6353H4.00781C3.63184 11.6353 3.3597 11.7337 3.19141 11.9307C3.02669 12.124 2.94434 12.4069 2.94434 12.7793Z" fill="#6FA6D9"/>
		<path d="M13.6464 17.3536C13.8417 17.5488 14.1583 17.5488 14.3536 17.3536L17.5355 14.1716C17.7308 13.9763 17.7308 13.6597 17.5355 13.4645C17.3403 13.2692 17.0237 13.2692 16.8284 13.4645L14 16.2929L11.1716 13.4645C10.9763 13.2692 10.6597 13.2692 10.4645 13.4645C10.2692 13.6597 10.2692 13.9763 10.4645 14.1716L13.6464 17.3536ZM13.5 1L13.5 17L14.5 17L14.5 1L13.5 1Z" fill="#B6B6B6"/>
	</symbol>
	<symbol id="sort_z-a">
		<path d="M4.9585 8V5.25537H3.87354L2.55225 8H0.505859L2.11182 4.61621C1.41357 4.16146 1.06445 3.49365 1.06445 2.61279C1.06445 1.83936 1.31868 1.24137 1.82715 0.818848C2.33561 0.392741 3.06787 0.179688 4.02393 0.179688H6.84912V8H4.9585ZM2.94434 2.7793C2.94434 3.17676 3.0249 3.46501 3.18604 3.64404C3.34717 3.82308 3.61751 3.9126 3.99707 3.9126H4.9585V1.63525H4.00781C3.63184 1.63525 3.3597 1.73372 3.19141 1.93066C3.02669 2.12402 2.94434 2.4069 2.94434 2.7793Z" fill="#6FA6D9"/>
		<path d="M6.03271 16.5391H3.44922L2.99805 18H0.983887L3.85205 10.1797H5.62451L8.51416 18H6.48926L6.03271 16.5391ZM3.90039 15.0835H5.58154L4.73828 12.3711L3.90039 15.0835Z" fill="#FFCE6D"/>
		<path d="M13.6464 17.3536C13.8417 17.5488 14.1583 17.5488 14.3536 17.3536L17.5355 14.1716C17.7308 13.9763 17.7308 13.6597 17.5355 13.4645C17.3403 13.2692 17.0237 13.2692 16.8284 13.4645L14 16.2929L11.1716 13.4645C10.9763 13.2692 10.6597 13.2692 10.4645 13.4645C10.2692 13.6597 10.2692 13.9763 10.4645 14.1716L13.6464 17.3536ZM13.5 1L13.5 17L14.5 17L14.5 1L13.5 1Z" fill="#B6B6B6"/>
	</symbol>
	<symbol id="find">
		<circle cx="5.5" cy="5.5" r="4.5" stroke="white" stroke-width="2" fill="#F4672D"/>
		<path d="M8 9L14 15" stroke="white" stroke-width="2"/>
	</symbol>
	<symbol id="check">
		<path fill-rule="evenodd" clip-rule="evenodd" d="M6.57435 8.68514C6.25606 9.10514 5.74017 9.10493 5.42208 8.68467L0.238464 1.83625C-0.0796277 1.416 -0.0794676 0.734848 0.238822 0.314856C0.557111 -0.105136 1.073 -0.104925 1.39109 0.315328L5.92887 6.31049L6.06867 6.31055L10.6093 0.319104C10.9276 -0.100888 11.4434 -0.100676 11.7615 0.319577C12.0796 0.739829 12.0795 1.42098 11.7612 1.84097L6.57435 8.68514Z" fill="#EB4B13"/>
	</symbol>	
</svg>