<svg xmlns="http://www.w3.org/2000/svg">
	<symbol id="arround">
		<path d="M12.6822 6.01449C13.1059 6.46105 13.1059 7.18507 12.6822 7.63162C12.2584 8.07818 11.5714 8.07818 11.1476 7.63162L5.76196 1.95629C5.33819 1.50973 5.3382 0.785718 5.76196 0.33916C6.18572 -0.107398 6.87278 -0.107398 7.29654 0.33916L12.6822 6.01449Z"/>
		<path d="M1.85974 7.66376C1.4343 8.11208 0.74452 8.11208 0.31908 7.66376C-0.106359 7.21543 -0.106359 6.48855 0.319081 6.04023L5.73191 0.336243C6.15735 -0.112082 6.84713 -0.112082 7.27257 0.336243C7.69801 0.784567 7.69801 1.51145 7.27256 1.95977L1.85974 7.66376Z"/>
	</symbol>
	<symbol id="filters">
		<path d="M3.64645 18.3536C3.84171 18.5488 4.15829 18.5488 4.35355 18.3536L7.53553 15.1716C7.7308 14.9763 7.7308 14.6597 7.53553 14.4645C7.34027 14.2692 7.02369 14.2692 6.82843 14.4645L4 17.2929L1.17157 14.4645C0.976311 14.2692 0.659729 14.2692 0.464466 14.4645C0.269204 14.6597 0.269204 14.9763 0.464466 15.1716L3.64645 18.3536ZM3.5 2L3.5 18L4.5 18L4.5 2L3.5 2Z"/>
		<path d="M12.3536 0.646446C12.1583 0.451185 11.8417 0.451185 11.6464 0.646446L8.46447 3.82843C8.2692 4.02369 8.2692 4.34027 8.46447 4.53553C8.65973 4.7308 8.97631 4.7308 9.17157 4.53553L12 1.70711L14.8284 4.53553C15.0237 4.7308 15.3403 4.7308 15.5355 4.53553C15.7308 4.34027 15.7308 4.02369 15.5355 3.82843L12.3536 0.646446ZM12.5 17L12.5 1L11.5 1L11.5 17L12.5 17Z"/>>
	</symbol>		
	<symbol id="sort_a-z">
		<path d="M6.03271 6.53906H3.44922L2.99805 8H0.983887L3.85205 0.179688H5.62451L8.51416 8H6.48926L6.03271 6.53906ZM3.90039 5.0835H5.58154L4.73828 2.37109L3.90039 5.0835Z" fill="#FFCE6D"/>
		<path d="M4.9585 18V15.2554H3.87354L2.55225 18H0.505859L2.11182 14.6162C1.41357 14.1615 1.06445 13.4937 1.06445 12.6128C1.06445 11.8394 1.31868 11.2414 1.82715 10.8188C2.33561 10.3927 3.06787 10.1797 4.02393 10.1797H6.84912V18H4.9585ZM2.94434 12.7793C2.94434 13.1768 3.0249 13.465 3.18604 13.644C3.34717 13.8231 3.61751 13.9126 3.99707 13.9126H4.9585V11.6353H4.00781C3.63184 11.6353 3.3597 11.7337 3.19141 11.9307C3.02669 12.124 2.94434 12.4069 2.94434 12.7793Z" fill="#6FA6D9"/>
		<path d="M13.6464 17.3536C13.8417 17.5488 14.1583 17.5488 14.3536 17.3536L17.5355 14.1716C17.7308 13.9763 17.7308 13.6597 17.5355 13.4645C17.3403 13.2692 17.0237 13.2692 16.8284 13.4645L14 16.2929L11.1716 13.4645C10.9763 13.2692 10.6597 13.2692 10.4645 13.4645C10.2692 13.6597 10.2692 13.9763 10.4645 14.1716L13.6464 17.3536ZM13.5 1L13.5 17L14.5 17L14.5 1L13.5 1Z" fill="#B6B6B6"/>
	</symbol>
	<symbol id="sort_z-a">
		<path d="M4.9585 8V5.25537H3.87354L2.55225 8H0.505859L2.11182 4.61621C1.41357 4.16146 1.06445 3.49365 1.06445 2.61279C1.06445 1.83936 1.31868 1.24137 1.82715 0.818848C2.33561 0.392741 3.06787 0.179688 4.02393 0.179688H6.84912V8H4.9585ZM2.94434 2.7793C2.94434 3.17676 3.0249 3.46501 3.18604 3.64404C3.34717 3.82308 3.61751 3.9126 3.99707 3.9126H4.9585V1.63525H4.00781C3.63184 1.63525 3.3597 1.73372 3.19141 1.93066C3.02669 2.12402 2.94434 2.4069 2.94434 2.7793Z" fill="#6FA6D9"/>
		<path d="M6.03271 16.5391H3.44922L2.99805 18H0.983887L3.85205 10.1797H5.62451L8.51416 18H6.48926L6.03271 16.5391ZM3.90039 15.0835H5.58154L4.73828 12.3711L3.90039 15.0835Z" fill="#FFCE6D"/>
		<path d="M13.6464 17.3536C13.8417 17.5488 14.1583 17.5488 14.3536 17.3536L17.5355 14.1716C17.7308 13.9763 17.7308 13.6597 17.5355 13.4645C17.3403 13.2692 17.0237 13.2692 16.8284 13.4645L14 16.2929L11.1716 13.4645C10.9763 13.2692 10.6597 13.2692 10.4645 13.4645C10.2692 13.6597 10.2692 13.9763 10.4645 14.1716L13.6464 17.3536ZM13.5 1L13.5 17L14.5 17L14.5 1L13.5 1Z" fill="#B6B6B6"/>
	</symbol>
	<symbol id="find">
		<circle cx="5.5" cy="5.5" r="4.5" stroke="white" stroke-width="2" fill="none"/>
		<path d="M8 9L14 15" stroke="white" stroke-width="2"/>
	</symbol>
	<symbol id="check">
		<path fill-rule="evenodd" clip-rule="evenodd" d="M6.57435 8.68514C6.25606 9.10514 5.74017 9.10493 5.42208 8.68467L0.238464 1.83625C-0.0796277 1.416 -0.0794676 0.734848 0.238822 0.314856C0.557111 -0.105136 1.073 -0.104925 1.39109 0.315328L5.92887 6.31049L6.06867 6.31055L10.6093 0.319104C10.9276 -0.100888 11.4434 -0.100676 11.7615 0.319577C12.0796 0.739829 12.0795 1.42098 11.7612 1.84097L6.57435 8.68514Z" />
	</symbol>	
	<symbol id="edit" viewBox="0 0 350 350">
		<path d="M333.988,11.758l-0.42-0.383C325.538,4.04,315.129,0,304.258,0c-12.187,0-23.888,5.159-32.104,14.153L116.803,184.231
		c-1.416,1.55-2.49,3.379-3.154,5.37l-18.267,54.762c-2.112,6.331-1.052,13.333,2.835,18.729c3.918,5.438,10.23,8.685,16.886,8.685
		c0,0,0.001,0,0.001,0c2.879,0,5.693-0.592,8.362-1.76l52.89-23.138c1.923-0.841,3.648-2.076,5.063-3.626L336.771,73.176
		C352.937,55.479,351.69,27.929,333.988,11.758z M130.381,234.247l10.719-32.134l0.904-0.99l20.316,18.556l-0.904,0.99
		L130.381,234.247z M314.621,52.943L182.553,197.53l-20.316-18.556L294.305,34.386c2.583-2.828,6.118-4.386,9.954-4.386
		c3.365,0,6.588,1.252,9.082,3.53l0.419,0.383C319.244,38.922,319.63,47.459,314.621,52.943z"/>
		<path d="M303.85,138.388c-8.284,0-15,6.716-15,15v127.347c0,21.034-17.113,38.147-38.147,38.147H68.904
		c-21.035,0-38.147-17.113-38.147-38.147V100.413c0-21.034,17.113-38.147,38.147-38.147h131.587c8.284,0,15-6.716,15-15
		s-6.716-15-15-15H68.904c-37.577,0-68.147,30.571-68.147,68.147v180.321c0,37.576,30.571,68.147,68.147,68.147h181.798
		c37.576,0,68.147-30.571,68.147-68.147V153.388C318.85,145.104,312.134,138.388,303.85,138.388z"/>
	</symbol>
</svg>