<svg width="28" height="28" viewBox="0 0 28 28" fill="none" xmlns="http://www.w3.org/2000/svg">
<g filter="url(#filter0_d)">
<path d="M4.51682 6.07819C3.82773 5.37401 3.82773 4.23231 4.51682 3.52813C5.20591 2.82396 6.32315 2.82396 7.01224 3.52813L23.0478 19.9147C23.7369 20.6189 23.7369 21.7606 23.0478 22.4648C22.3587 23.169 21.2415 23.169 20.5524 22.4648L4.51682 6.07819Z" fill="url(#paint0_linear)"/>
<path d="M20.9758 3.53314C21.6677 2.82617 22.7893 2.82617 23.4811 3.53313C24.173 4.2401 24.173 5.38631 23.4811 6.09328L7.45544 22.4698C6.76362 23.1767 5.64195 23.1767 4.95013 22.4698C4.25831 21.7628 4.25831 20.6166 4.95013 19.9096L20.9758 3.53314Z" fill="url(#paint1_linear)"/>
</g>
<defs>
<filter id="filter0_d" x="0" y="0" width="28" height="28" filterUnits="userSpaceOnUse" color-interpolation-filters="sRGB">
<feFlood flood-opacity="0" result="BackgroundImageFix"/>
<feColorMatrix in="SourceAlpha" type="matrix" values="0 0 0 0 0 0 0 0 0 0 0 0 0 0 0 0 0 0 127 0"/>
<feOffset dy="1"/>
<feGaussianBlur stdDeviation="2"/>
<feColorMatrix type="matrix" values="0 0 0 0 0.506944 0 0 0 0 0.617917 0 0 0 0 0.833333 0 0 0 1 0"/>
<feBlend mode="normal" in2="BackgroundImageFix" result="effect1_dropShadow"/>
<feBlend mode="normal" in="SourceGraphic" in2="effect1_dropShadow" result="shape"/>
</filter>
<linearGradient id="paint0_linear" x1="4.12111" y1="21.6226" x2="6.02822" y2="23.4889" gradientUnits="userSpaceOnUse">
<stop stop-color="#40689C"/>
</linearGradient>
<linearGradient id="paint1_linear" x1="4.12111" y1="21.6226" x2="6.02822" y2="23.4889" gradientUnits="userSpaceOnUse">
<stop stop-color="#40689C"/>
</linearGradient>
</defs>
</svg>
