<svg width="79" height="69" viewBox="0 0 79 69" fill="none" xmlns="http://www.w3.org/2000/svg">
<path fill-rule="evenodd" clip-rule="evenodd" d="M-3.63048e-07 20.9817C-1.62542e-07 19.8349 0.929632 18.9053 2.07639 18.9053L24.9167 18.9053C26.0635 18.9053 26.9931 19.8349 26.9931 20.9817C26.9931 22.1284 26.0635 23.0581 24.9167 23.0581L2.07639 23.0581C0.929632 23.0581 -5.63554e-07 22.1284 -3.63048e-07 20.9817Z" fill="#528CD7"/>
<path fill-rule="evenodd" clip-rule="evenodd" d="M17.134 13.7289C17.7581 12.7652 19.0714 12.4423 20.0674 13.0078L31.0384 19.237C31.6765 19.5993 32.0558 20.2609 32.0358 20.9767C32.0158 21.6926 31.5996 22.3562 30.9412 22.7217L19.7208 28.9509C18.6931 29.5214 17.3976 29.205 16.8272 28.2442C16.2567 27.2834 16.6274 26.0421 17.6551 25.4715L25.7232 20.9924L17.8073 16.4979C16.8113 15.9324 16.5098 14.6927 17.134 13.7289Z" fill="#528CD7"/>
<path fill-rule="evenodd" clip-rule="evenodd" d="M77 2.07407C77 0.928594 75.9825 -2.88398e-09 74.7273 -6.44154e-09L31.5455 3.65667e-07C29.0351 4.82176e-07 27 1.85719 27 4.14815L27 11.5185C27 12.664 28.0175 13.5926 29.2727 13.5926C30.5279 13.5926 31.5455 12.664 31.5455 11.5185L31.5455 4.14815L74.7273 4.14815C75.9825 4.14815 77 3.21955 77 2.07407ZM29.2727 27.8889C28.0175 27.8889 27 28.8175 27 29.963L27 51.8519C27 54.1428 29.0351 56 31.5455 56L40.6364 56C41.8916 56 42.9091 55.0714 42.9091 53.9259C42.9091 52.7805 41.8916 51.8519 40.6364 51.8519L31.5455 51.8519L31.5455 29.963C31.5455 28.8175 30.5279 27.8889 29.2727 27.8889Z" fill="#528CD7"/>
<path d="M44.2144 16.3277L73.6811 2.23911C75.1903 1.51751 77 2.51608 77 4.07047V39.2023V52.6334C77 53.4424 76.4828 54.1771 75.6763 54.5137L46.2096 66.8102C44.7083 67.4367 43 66.4359 43 64.9299V18.1591C43 17.3902 43.4678 16.6847 44.2144 16.3277Z" fill="#99BDED"/>
<path fill-rule="evenodd" clip-rule="evenodd" d="M79 4.13252C79 1.03006 75.4307 -0.963012 72.454 0.477257L43.3952 14.5373C41.9226 15.2497 41 16.6577 41 18.1925V64.8683C41 67.874 44.3694 69.8716 47.3304 68.6211L76.3892 56.3496C77.9798 55.6779 79 54.2115 79 52.5967V39.1929C79 38.0533 77.9992 37.1294 76.7647 37.1294C75.5302 37.1294 74.5294 38.0533 74.5294 39.1929V52.5967L45.4706 64.8683L45.4706 18.1925L74.5294 4.13252V33.0025C74.5294 34.1421 75.5302 35.066 76.7647 35.066C77.9992 35.066 79 34.1421 79 33.0025V4.13252Z" fill="#528CD7"/>
<path fill-rule="evenodd" clip-rule="evenodd" d="M52 34.1667C52 32.9701 51.1046 32 50 32C48.8954 32 48 32.97 48 34.1667V42.8333C48 44.0299 48.8954 45 50 45C51.1046 45 52 44.03 52 42.8333V34.1667Z" fill="#528CD7"/>
</svg>
